<svg width="500" height="500" viewBox="0 0 500 500" fill="none" xmlns="http://www.w3.org/2000/svg">
<rect width="500" height="500" rx="50" fill="url(#paint0_linear_1_7)"/>
<g clip-path="url(#clip0_1_7)">
<path d="M100.667 175.333C105.617 175.333 110.365 173.367 113.866 169.866C117.367 166.365 119.333 161.617 119.333 156.667C119.333 151.716 117.367 146.968 113.866 143.467C110.365 139.967 105.617 138 100.667 138C95.716 138 90.968 139.967 87.4673 143.467C83.9667 146.968 82 151.716 82 156.667C82 161.617 83.9667 166.365 87.4673 169.866C90.968 173.367 95.716 175.333 100.667 175.333ZM175.333 156.667C175.333 161.617 173.367 166.365 169.866 169.866C166.365 173.367 161.617 175.333 156.667 175.333C151.716 175.333 146.968 173.367 143.467 169.866C139.967 166.365 138 161.617 138 156.667C138 151.716 139.967 146.968 143.467 143.467C146.968 139.967 151.716 138 156.667 138C161.617 138 166.365 139.967 169.866 143.467C173.367 146.968 175.333 151.716 175.333 156.667ZM212.667 175.333C217.617 175.333 222.365 173.367 225.866 169.866C229.367 166.365 231.333 161.617 231.333 156.667C231.333 151.716 229.367 146.968 225.866 143.467C222.365 139.967 217.617 138 212.667 138C207.716 138 202.968 139.967 199.467 143.467C195.967 146.968 194 151.716 194 156.667C194 161.617 195.967 166.365 199.467 169.866C202.968 173.367 207.716 175.333 212.667 175.333Z" fill="#F5F5F5"/>
<path fill-rule="evenodd" clip-rule="evenodd" d="M82 82C67.1479 82 52.9041 87.9 42.402 98.402C31.9 108.904 26 123.148 26 138L26 362C26 376.852 31.9 391.096 42.402 401.598C52.9041 412.1 67.1479 418 82 418H418C432.852 418 447.096 412.1 457.598 401.598C468.1 391.096 474 376.852 474 362V138C474 123.148 468.1 108.904 457.598 98.402C447.096 87.9 432.852 82 418 82H82ZM418 119.333H82C77.0493 119.333 72.3013 121.3 68.8007 124.801C65.3 128.301 63.3333 133.049 63.3333 138V194H436.667V138C436.667 133.049 434.7 128.301 431.199 124.801C427.699 121.3 422.951 119.333 418 119.333ZM63.3333 362V231.333H436.667V362C436.667 366.951 434.7 371.699 431.199 375.199C427.699 378.7 422.951 380.667 418 380.667H82C77.0493 380.667 72.3013 378.7 68.8007 375.199C65.3 371.699 63.3333 366.951 63.3333 362Z" fill="#F5F5F5"/>
<path d="M314.935 306.881L209.227 360.936V252.825L314.935 306.881Z" fill="url(#paint1_linear_1_7)"/>
</g>
<defs>
<linearGradient id="paint0_linear_1_7" x1="250" y1="0" x2="250" y2="500" gradientUnits="userSpaceOnUse">
<stop stop-color="#501AEA"/>
<stop offset="1" stop-color="#A4234A"/>
</linearGradient>
<linearGradient id="paint1_linear_1_7" x1="314.935" y1="306.881" x2="173.991" y2="306.881" gradientUnits="userSpaceOnUse">
<stop stop-color="#400CD3"/>
<stop offset="0.0260417" stop-color="#F4AD23"/>
<stop offset="1" stop-color="#68ECE4"/>
</linearGradient>
<clipPath id="clip0_1_7">
<rect width="448" height="448" fill="white" transform="translate(26 26)"/>
</clipPath>
</defs>
</svg>
